<svg width="24" height="24" viewBox="0 0 24 24" fill="#34495E" xmlns="http://www.w3.org/2000/svg">
<path fill-rule="evenodd" clip-rule="evenodd" d="M22.9058 12.6398C22.9268 12.6206 22.9455 12.5991 22.9611 12.5753C22.9623 12.5734 22.9633 12.5714 22.9643 12.5695C22.9653 12.5675 22.9663 12.5655 22.9676 12.5637C22.9801 12.5426 22.9902 12.5201 22.998 12.4964L22.998 12.4964C23.0005 12.4891 23.0028 12.4822 23.0047 12.4751C23.0121 12.447 23.0173 12.418 23.0173 12.3876C23.0173 12.3571 23.012 12.328 23.0047 12.3C23.0026 12.2928 23.0006 12.2858 22.9983 12.2787C22.9902 12.2553 22.9804 12.233 22.9679 12.2123L22.9654 12.2074C22.964 12.2047 22.9627 12.2019 22.961 12.1995C22.9455 12.176 22.9271 12.1549 22.9065 12.1358C22.9031 12.1326 22.8995 12.1298 22.8959 12.1269L22.8959 12.1269L22.8891 12.1215C22.87 12.1061 22.8495 12.0927 22.8275 12.0816C22.8259 12.0808 22.8245 12.0797 22.8231 12.0787C22.8216 12.0775 22.8201 12.0763 22.8182 12.0755L8.77907 5.53478C8.64776 5.47364 8.49221 5.50104 8.38989 5.60361C8.28745 5.70629 8.26017 5.86172 8.32144 5.9929L11.3107 12.3877L8.32144 18.7824C8.26017 18.9136 8.28745 19.0691 8.38989 19.1717L8.39002 19.1719C8.49246 19.2743 8.64788 19.3018 8.77907 19.2406L22.8184 12.6997C22.82 12.699 22.8214 12.6979 22.8229 12.6968L22.8229 12.6968C22.8243 12.6957 22.8257 12.6947 22.8274 12.6939C22.85 12.6824 22.8709 12.6687 22.8903 12.6528L22.8936 12.6502C22.8977 12.6469 22.9019 12.6436 22.9058 12.6398ZM9.34694 6.55943L21.1177 12.043L11.9105 12.043L9.34694 6.55943ZM11.9105 12.7321L9.34694 18.2157L21.1177 12.7321H11.9105Z" fill="#34495E"/>
<path d="M22.9611 12.5753L22.545 12.298L22.5425 12.3019L22.9611 12.5753ZM22.9058 12.6398L22.5675 12.2715L22.5612 12.2775L22.9058 12.6398ZM22.9643 12.5695L23.4102 12.7957L23.4102 12.7957L22.9643 12.5695ZM22.9676 12.5637L23.3836 12.841L23.3907 12.8304L23.3972 12.8195L22.9676 12.5637ZM22.998 12.4964L23.4729 12.6531L23.4739 12.6497L22.998 12.4964ZM22.998 12.4964L22.5237 12.3382L22.5221 12.3431L22.998 12.4964ZM23.0047 12.4751L23.4867 12.6081L23.4881 12.6028L23.0047 12.4751ZM23.0047 12.3L23.4887 12.1737L23.4852 12.1615L23.0047 12.3ZM22.9983 12.2787L23.4743 12.1253L23.4711 12.1161L22.9983 12.2787ZM22.9679 12.2123L22.524 12.4423L22.5312 12.4561L22.5392 12.4695L22.9679 12.2123ZM22.9654 12.2074L22.5181 12.4309L22.5215 12.4375L22.9654 12.2074ZM22.961 12.1995L22.5432 12.4744L22.549 12.4827L22.961 12.1995ZM22.9065 12.1358L23.2469 11.7694L23.2437 11.7665L22.9065 12.1358ZM22.8959 12.1269L22.5688 12.5051L22.5775 12.5127L22.5866 12.5198L22.8959 12.1269ZM22.8959 12.1269L23.2229 11.7487L23.216 11.7427L23.2088 11.737L22.8959 12.1269ZM22.8891 12.1215L22.5747 12.5103L22.5762 12.5115L22.8891 12.1215ZM22.8275 12.0816L23.0521 11.6349L23.0511 11.6344L22.8275 12.0816ZM22.8231 12.0787L23.128 11.6824L23.128 11.6824L22.8231 12.0787ZM22.8182 12.0755L22.6071 12.5288L22.6137 12.5317L22.8182 12.0755ZM8.77907 5.53478L8.99022 5.08156L8.99014 5.08152L8.77907 5.53478ZM8.38989 5.60361L8.03592 5.25047L8.03592 5.25047L8.38989 5.60361ZM8.32144 5.9929L7.86841 6.20448L7.86848 6.20464L8.32144 5.9929ZM11.3107 12.3877L11.7637 12.5994L11.8626 12.3877L11.7637 12.1759L11.3107 12.3877ZM8.32144 18.7824L7.86848 18.5707L7.86841 18.5709L8.32144 18.7824ZM8.38989 19.1717L8.03592 19.5249L8.03634 19.5253L8.38989 19.1717ZM8.77907 19.2406L8.56791 18.7873L8.56749 18.7875L8.77907 19.2406ZM22.8184 12.6997L23.0295 13.153L23.0353 13.1502L22.8184 12.6997ZM22.8229 12.6968L22.545 12.2811L22.5344 12.2882L22.5242 12.2958L22.8229 12.6968ZM22.8229 12.6968L23.1007 13.1125L23.1112 13.1055L23.1213 13.098L22.8229 12.6968ZM22.8274 12.6939L23.0444 13.1444L23.0529 13.1401L22.8274 12.6939ZM22.8903 12.6528L22.5763 12.2638L22.575 12.2648L22.8903 12.6528ZM22.8936 12.6502L22.5802 12.2606L22.5795 12.2612L22.8936 12.6502ZM21.1177 12.043L21.1177 12.543L21.3288 11.5897L21.1177 12.043ZM9.34694 6.55943L9.55808 6.1062L8.31165 5.52553L8.89399 6.77118L9.34694 6.55943ZM11.9105 12.043L11.4575 12.2547L11.5923 12.543L11.9105 12.543L11.9105 12.043ZM9.34694 18.2157L8.89399 18.0039L8.31165 19.2496L9.55808 18.6689L9.34694 18.2157ZM11.9105 12.7321V12.2321H11.5923L11.4575 12.5204L11.9105 12.7321ZM21.1177 12.7321L21.3288 13.1854L21.1177 12.2321V12.7321ZM22.5425 12.3019C22.5524 12.2867 22.5619 12.2768 22.5676 12.2716L23.2441 13.008C23.2917 12.9643 23.3386 12.9116 23.3797 12.8487L22.5425 12.3019ZM22.5185 12.3432C22.5174 12.3452 22.5202 12.3397 22.5238 12.3331C22.5277 12.3259 22.5349 12.3132 22.545 12.298L23.3772 12.8525C23.3885 12.8355 23.3968 12.8209 23.4018 12.8117C23.4044 12.807 23.4064 12.8031 23.4078 12.8005C23.409 12.7981 23.4101 12.796 23.4102 12.7957L22.5185 12.3432ZM22.5515 12.2864C22.5401 12.3034 22.5319 12.318 22.5269 12.3272C22.5243 12.3319 22.5223 12.3358 22.5209 12.3384C22.5197 12.3408 22.5186 12.343 22.5185 12.3432L23.4102 12.7957C23.4112 12.7937 23.4085 12.7993 23.4049 12.8058C23.4009 12.8131 23.3938 12.8257 23.3836 12.841L22.5515 12.2864ZM22.5232 12.3398C22.5261 12.3311 22.5307 12.3201 22.5379 12.3079L23.3972 12.8195C23.4295 12.7651 23.4544 12.7091 23.4728 12.6531L22.5232 12.3398ZM22.5221 12.3431L22.5221 12.3432L23.4739 12.6497L23.474 12.6497L22.5221 12.3431ZM22.5227 12.3422C22.524 12.3374 22.525 12.3342 22.5252 12.3337C22.5252 12.3336 22.5251 12.334 22.5237 12.3382L23.4724 12.6545C23.4741 12.6494 23.4807 12.63 23.4867 12.6081L22.5227 12.3422ZM22.5173 12.3876C22.5173 12.3618 22.5217 12.346 22.5213 12.3475L23.4881 12.6028C23.5026 12.548 23.5173 12.4742 23.5173 12.3875L22.5173 12.3876ZM22.5209 12.4262C22.5219 12.4298 22.5173 12.4141 22.5173 12.3876L23.5173 12.3875C23.5173 12.3001 23.5022 12.2262 23.4885 12.1738L22.5209 12.4262ZM22.5223 12.4319C22.5225 12.4325 22.523 12.4341 22.5243 12.4384L23.4852 12.1615C23.4823 12.1515 23.4786 12.1392 23.4742 12.1254L22.5223 12.4319ZM22.5392 12.4695C22.5303 12.4547 22.5264 12.4441 22.5254 12.4412L23.4711 12.1161C23.454 12.0665 23.4304 12.0112 23.3967 11.955L22.5392 12.4695ZM22.5215 12.4375L22.524 12.4423L23.4119 11.9822L23.4094 11.9774L22.5215 12.4375ZM22.549 12.4827C22.5368 12.4651 22.5285 12.4503 22.5239 12.442C22.5199 12.4345 22.5168 12.4281 22.5181 12.4309L23.4127 11.984C23.4127 11.984 23.4082 11.9749 23.4027 11.9647C23.3967 11.9537 23.3868 11.9363 23.373 11.9162L22.549 12.4827ZM22.5662 12.5021C22.5614 12.4976 22.5526 12.4885 22.5433 12.4743L23.3787 11.9246C23.3384 11.8635 23.2929 11.8122 23.2469 11.7695L22.5662 12.5021ZM22.5866 12.5198C22.589 12.5217 22.5871 12.5203 22.5847 12.5183C22.5819 12.516 22.5763 12.5113 22.5694 12.505L23.2437 11.7665C23.2245 11.7491 23.2066 11.7352 23.2051 11.7341L22.5866 12.5198ZM22.5688 12.5051L22.5688 12.5051L23.2229 11.7487L23.2229 11.7487L22.5688 12.5051ZM22.5762 12.5115L22.5829 12.5169L23.2088 11.737L23.2021 11.7316L22.5762 12.5115ZM22.6029 12.5283C22.5911 12.5223 22.5816 12.5159 22.5747 12.5103L23.2036 11.7328C23.1584 11.6962 23.108 11.663 23.0521 11.6349L22.6029 12.5283ZM22.5182 12.4749C22.5183 12.475 22.5191 12.4756 22.52 12.4763C22.5209 12.477 22.5224 12.4781 22.5242 12.4795C22.5278 12.4821 22.5333 12.4863 22.5403 12.4911C22.5543 12.5008 22.5759 12.5148 22.6039 12.5288L23.0511 11.6344C23.0775 11.6475 23.0976 11.6606 23.1101 11.6693C23.1213 11.677 23.1303 11.6841 23.128 11.6824L22.5182 12.4749ZM22.6137 12.5317C22.5812 12.5172 22.5564 12.5018 22.5407 12.4911C22.5267 12.4817 22.5155 12.4729 22.5182 12.4749L23.128 11.6824C23.128 11.6823 23.127 11.6816 23.1259 11.6808C23.1248 11.6799 23.123 11.6785 23.1208 11.6769C23.1164 11.6736 23.1096 11.6686 23.101 11.6628C23.0836 11.651 23.0571 11.6346 23.0227 11.6192L22.6137 12.5317ZM8.56792 5.98801L22.6071 12.5287L23.0294 11.6223L8.99022 5.08156L8.56792 5.98801ZM8.74387 5.95674C8.69733 6.00338 8.62695 6.0155 8.568 5.98805L8.99014 5.08152C8.66857 4.93177 8.28709 4.9987 8.03592 5.25047L8.74387 5.95674ZM8.77447 5.78132C8.80222 5.84074 8.78961 5.91089 8.74387 5.95674L8.03592 5.25047C7.7853 5.50169 7.71812 5.88269 7.86841 6.20448L8.77447 5.78132ZM11.7637 12.1759L8.77439 5.78117L7.86848 6.20464L10.8578 12.5994L11.7637 12.1759ZM8.77439 18.9942L11.7637 12.5994L10.8578 12.1759L7.86848 18.5707L8.77439 18.9942ZM8.74387 18.8186C8.78961 18.8645 8.80222 18.9346 8.77447 18.994L7.86841 18.5709C7.71812 18.8927 7.7853 19.2737 8.03592 19.5249L8.74387 18.8186ZM8.74357 18.8183L8.74345 18.8182L8.03634 19.5253L8.03646 19.5254L8.74357 18.8183ZM8.56749 18.7875C8.62736 18.7596 8.6977 18.7724 8.74357 18.8183L8.03646 19.5254C8.28721 19.7762 8.6684 19.8441 8.99065 19.6936L8.56749 18.7875ZM22.6072 12.2465L8.56791 18.7873L8.99022 19.6938L23.0295 13.153L22.6072 12.2465ZM22.5242 12.2958C22.5219 12.2975 22.5309 12.2907 22.5419 12.2833C22.5542 12.2751 22.5746 12.2622 22.6014 12.2493L23.0353 13.1502C23.0638 13.1365 23.0857 13.1227 23.0995 13.1134C23.1064 13.1088 23.112 13.1048 23.1155 13.1022C23.1173 13.1009 23.1188 13.0999 23.1197 13.0992C23.1206 13.0985 23.1214 13.0979 23.1215 13.0978L22.5242 12.2958ZM22.545 12.2811L22.545 12.2811L23.1007 13.1125L23.1007 13.1125L22.545 12.2811ZM22.6104 12.2434C22.5819 12.2571 22.5601 12.2709 22.5463 12.2801C22.5394 12.2848 22.5339 12.2887 22.5304 12.2913C22.5286 12.2926 22.5271 12.2937 22.5262 12.2944C22.5253 12.295 22.5245 12.2956 22.5244 12.2957L23.1213 13.098C23.1237 13.0962 23.1147 13.103 23.1038 13.1104C23.0915 13.1186 23.0711 13.1315 23.0444 13.1443L22.6104 12.2434ZM22.575 12.2648C22.5811 12.2598 22.5902 12.2535 22.6018 12.2476L23.0529 13.1401C23.1099 13.1113 23.1606 13.0775 23.2056 13.0409L22.575 12.2648ZM22.5795 12.2612L22.5763 12.2638L23.2044 13.0419L23.2077 13.0392L22.5795 12.2612ZM22.5612 12.2775C22.5688 12.2703 22.575 12.265 22.5782 12.2623C22.5809 12.26 22.583 12.2584 22.5802 12.2606L23.207 13.0398C23.2087 13.0384 23.229 13.0225 23.2504 13.0021L22.5612 12.2775ZM21.3288 11.5897L9.55808 6.1062L9.13579 7.01266L20.9065 12.4962L21.3288 11.5897ZM11.9105 12.543L21.1177 12.543L21.1177 11.543L11.9105 11.543L11.9105 12.543ZM8.89399 6.77118L11.4575 12.2547L12.3634 11.8312L9.79988 6.34768L8.89399 6.77118ZM9.79988 18.4274L12.3634 12.9439L11.4575 12.5204L8.89399 18.0039L9.79988 18.4274ZM20.9065 12.2789L9.13579 17.7624L9.55808 18.6689L21.3288 13.1854L20.9065 12.2789ZM11.9105 13.2321H21.1177V12.2321L11.9105 12.2321V13.2321Z"/>
</svg>
